<svg width="21" height="20" viewBox="0 0 21 20" fill="none" xmlns="http://www.w3.org/2000/svg">
<path d="M20.2137 7.04257L13.9517 6.1301L11.1523 0.440169C11.0759 0.284382 10.9501 0.158269 10.7947 0.0816118C10.405 -0.111267 9.93149 0.0494654 9.73665 0.440169L6.93733 6.1301L0.67525 7.04257C0.502605 7.0673 0.344758 7.1489 0.223907 7.27254C0.0778039 7.4231 -0.00270537 7.62566 6.94179e-05 7.8357C0.0028442 8.04575 0.0886761 8.24609 0.238705 8.39272L4.7694 12.8215L3.69901 19.0753C3.6739 19.2207 3.68996 19.3703 3.74535 19.5071C3.80075 19.6439 3.89326 19.7624 4.0124 19.8492C4.13154 19.9359 4.27255 19.9875 4.41943 19.998C4.56631 20.0085 4.71318 19.9775 4.8434 19.9086L10.4445 16.9561L16.0456 19.9086C16.1985 19.9902 16.3761 20.0174 16.5463 19.9877C16.9754 19.9135 17.264 19.5055 17.19 19.0753L16.1196 12.8215L20.6503 8.39272C20.7736 8.27156 20.855 8.1133 20.8797 7.9402C20.9462 7.50746 20.6454 7.10686 20.2137 7.04257Z" fill="white"/>
</svg>
