<svg width="30" height="30" viewBox="0 0 30 30" fill="none" xmlns="http://www.w3.org/2000/svg">
<path d="M8 22H15M22 4.5H27.25C27.7141 4.5 28.1592 4.68437 28.4874 5.01256C28.8156 5.34075 29 5.78587 29 6.25V25.5C29 26.4283 28.6313 27.3185 27.9749 27.9749C27.3185 28.6313 26.4283 29 25.5 29C24.5717 29 23.6815 28.6313 23.0251 27.9749C22.3687 27.3185 22 26.4283 22 25.5V2.75C22 2.28587 21.8156 1.84075 21.4874 1.51256C21.1592 1.18437 20.7141 1 20.25 1H2.75C2.28587 1 1.84075 1.18437 1.51256 1.51256C1.18437 1.84075 1 2.28587 1 2.75V23.75C1 25.1424 1.55312 26.4777 2.53769 27.4623C3.52226 28.4469 4.85761 29 6.25 29H25.5L22 4.5ZM8 8H15H8ZM8 15H15H8Z" stroke="black" stroke-width="2" stroke-linecap="round" stroke-linejoin="round"/>
</svg>
