<svg width="31" height="30" viewBox="0 0 31 30" fill="none" xmlns="http://www.w3.org/2000/svg">
<path d="M15.3805 0C7.10049 0 0.380493 6.72 0.380493 15C0.380493 23.28 7.10049 30 15.3805 30C23.6605 30 30.3805 23.28 30.3805 15C30.3805 6.72 23.6605 0 15.3805 0ZM15.3805 4.5C17.8705 4.5 19.8805 6.51 19.8805 9C19.8805 11.49 17.8705 13.5 15.3805 13.5C12.8905 13.5 10.8805 11.49 10.8805 9C10.8805 6.51 12.8905 4.5 15.3805 4.5ZM15.3805 25.8C13.5983 25.8 11.8438 25.359 10.2734 24.5162C8.70305 23.6734 7.36566 22.4552 6.38049 20.97C6.42549 17.985 12.3805 16.35 15.3805 16.35C18.3655 16.35 24.3355 17.985 24.3805 20.97C23.3953 22.4552 22.0579 23.6734 20.4876 24.5162C18.9172 25.359 17.1627 25.8 15.3805 25.8Z" fill="black"/>
</svg>
