<svg width="27" height="30" viewBox="0 0 27 30" fill="none" xmlns="http://www.w3.org/2000/svg">
<path d="M2.13317 11.976C2.18949 11.2744 2.50803 10.6196 3.02536 10.1423C3.54269 9.66488 4.22085 9.39988 4.92478 9.40002H21.806C22.5099 9.39988 23.1881 9.66488 23.7054 10.1423C24.2227 10.6196 24.5413 11.2744 24.5976 11.976L25.7218 25.976C25.7527 26.3613 25.7035 26.7488 25.5773 27.1141C25.4512 27.4795 25.2507 27.8147 24.9886 28.0988C24.7265 28.3828 24.4084 28.6096 24.0544 28.7647C23.7004 28.9198 23.3181 28.9999 22.9316 29H3.79917C3.41267 28.9999 3.03037 28.9198 2.67635 28.7647C2.32232 28.6096 2.00425 28.3828 1.74215 28.0988C1.48005 27.8147 1.2796 27.4795 1.15341 27.1141C1.02723 26.7488 0.978054 26.3613 1.00897 25.976L2.13317 11.976V11.976Z" stroke="black" stroke-width="2" stroke-linecap="round" stroke-linejoin="round"/>
<path d="M18.9654 13.6V6.6C18.9654 5.11479 18.3754 3.69041 17.3252 2.6402C16.275 1.59 14.8507 1 13.3654 1C11.8802 1 10.4558 1.59 9.40564 2.6402C8.35544 3.69041 7.76544 5.11479 7.76544 6.6V13.6" stroke="black" stroke-width="2" stroke-linecap="round" stroke-linejoin="round"/>
</svg>
