<svg width="36" height="29" viewBox="0 0 36 29" fill="none" xmlns="http://www.w3.org/2000/svg">
<path d="M9.02288 2.15407C9.24914 1.91126 9.37231 1.59011 9.36646 1.25828C9.3606 0.926442 9.22617 0.609837 8.9915 0.375159C8.75682 0.140481 8.44021 0.00605436 8.10838 0.000199555C7.77655 -0.00565525 7.4554 0.117519 7.21258 0.343772L3.84816 3.70819L3.04549 2.90551C2.80267 2.67926 2.48152 2.55609 2.14969 2.56194C1.81786 2.5678 1.50125 2.70222 1.26657 2.9369C1.0319 3.17158 0.89747 3.48818 0.891615 3.82002C0.88576 4.15185 1.00893 4.473 1.23519 4.71581L2.94302 6.42364C3.18318 6.66351 3.50873 6.79823 3.84816 6.79823C4.1876 6.79823 4.51315 6.66351 4.75331 6.42364L9.02288 2.15407ZM33.7352 24.7435H14.0951L13.9209 24.7555C13.5994 24.7997 13.3067 24.9643 13.1019 25.2161C12.8971 25.4678 12.7955 25.7879 12.8176 26.1117C12.8398 26.4355 12.9839 26.7388 13.2211 26.9603C13.4582 27.1819 13.7706 27.3052 14.0951 27.3053H33.7352L33.9094 27.2933C34.2309 27.2491 34.5236 27.0844 34.7284 26.8327C34.9332 26.5809 35.0348 26.2608 35.0127 25.9371C34.9905 25.6133 34.8463 25.31 34.6092 25.0884C34.3721 24.8669 34.0597 24.7436 33.7352 24.7435ZM33.7352 13.6307H14.0951L13.9209 13.6426C13.5994 13.6869 13.3067 13.8515 13.1019 14.1032C12.8971 14.355 12.7955 14.6751 12.8176 14.9988C12.8398 15.3226 12.9839 15.6259 13.2211 15.8475C13.4582 16.069 13.7706 16.1923 14.0951 16.1924H33.7352L33.9094 16.1805C34.2309 16.1362 34.5236 15.9716 34.7284 15.7199C34.9332 15.4681 35.0348 15.148 35.0127 14.8242C34.9905 14.5005 34.8463 14.1972 34.6092 13.9756C34.3721 13.7541 34.0597 13.6308 33.7352 13.6307ZM33.7352 2.52979H14.0951L13.9209 2.54175C13.5994 2.58598 13.3067 2.7506 13.1019 3.00235C12.8971 3.25409 12.7955 3.57419 12.8176 3.89797C12.8398 4.22174 12.9839 4.52505 13.2211 4.7466C13.4582 4.96815 13.7706 5.09143 14.0951 5.09153H33.7352L33.9094 5.07958C34.2309 5.03534 34.5236 4.87072 34.7284 4.61898C34.9332 4.36723 35.0348 4.04713 35.0127 3.72336C34.9905 3.39959 34.8463 3.09628 34.6092 2.87473C34.3721 2.65317 34.0597 2.52989 33.7352 2.52979ZM9.02288 24.3558C9.14873 24.2386 9.24966 24.0972 9.31967 23.94C9.38968 23.7829 9.42732 23.6133 9.43036 23.4413C9.43339 23.2693 9.40175 23.0985 9.33733 22.939C9.27291 22.7795 9.17703 22.6347 9.0554 22.513C8.93377 22.3914 8.78889 22.2955 8.6294 22.2311C8.4699 22.1667 8.29907 22.135 8.12709 22.1381C7.95511 22.1411 7.7855 22.1787 7.62838 22.2487C7.47126 22.3188 7.32985 22.4197 7.21258 22.5455L3.84816 25.91L3.04549 25.1073C2.80267 24.881 2.48152 24.7579 2.14969 24.7637C1.81786 24.7696 1.50125 24.904 1.26657 25.1387C1.0319 25.3733 0.89747 25.6899 0.891615 26.0218C0.88576 26.3536 1.00893 26.6748 1.23519 26.9176L2.94302 28.6254C3.18318 28.8653 3.50873 29 3.84816 29C4.1876 29 4.51315 28.8653 4.75331 28.6254L9.02288 24.3558ZM9.02288 11.4447C9.26275 11.6848 9.39748 12.0104 9.39748 12.3498C9.39748 12.6892 9.26275 13.0148 9.02288 13.255L4.75331 17.5245C4.51315 17.7644 4.1876 17.8991 3.84816 17.8991C3.50873 17.8991 3.18318 17.7644 2.94302 17.5245L1.23519 15.8167C1.10934 15.6994 1.00841 15.558 0.938399 15.4009C0.868392 15.2438 0.830748 15.0742 0.827714 14.9022C0.82468 14.7302 0.856316 14.5594 0.920737 14.3999C0.985158 14.2404 1.08104 14.0955 1.20267 13.9739C1.3243 13.8523 1.46918 13.7564 1.62868 13.6919C1.78817 13.6275 1.959 13.5959 2.13098 13.5989C2.30296 13.602 2.47257 13.6396 2.62969 13.7096C2.78681 13.7796 2.92822 13.8806 3.04549 14.0064L3.84816 14.8091L7.21258 11.4447C7.45275 11.2048 7.7783 11.0701 8.11773 11.0701C8.45717 11.0701 8.78272 11.2048 9.02288 11.4447Z" fill="black"/>
</svg>
