<svg width="36" height="48" viewBox="0 0 36 48" fill="none" xmlns="http://www.w3.org/2000/svg">
<path d="M18 0C7.99688 0 0 7.99688 0 18C0 21.4594 1.03125 24.1312 2.82187 26.8406L16.1063 46.9969C16.5094 47.6062 17.2031 48 18 48C18.7969 48 19.5 47.5969 19.8938 46.9969L33.1781 26.8406C34.9688 24.1312 36 21.4594 36 18C36 7.99688 28.0031 0 18 0ZM18 27.9938C12.4781 27.9938 7.99688 23.5125 7.99688 17.9813C7.99688 12.45 12.4781 7.96875 18 7.96875C23.5219 7.96875 28.0031 12.45 28.0031 17.9813C28.0031 23.5125 23.5219 27.9938 18 27.9938ZM18 12C14.6812 12 12 14.6812 12 18C12 21.3188 14.6812 24 18 24C21.3188 24 24 21.3188 24 18C24 14.6812 21.3188 12 18 12Z" fill="#27D06E"/>
</svg>
